<svg width="16" height="16" viewBox="0 0 16 16" fill="none" xmlns="http://www.w3.org/2000/svg">
<path d="M8.00039 13.1358L13.8184 7.47451C13.8653 7.4279 13.9209 7.39105 13.9822 7.36609C14.0434 7.34114 14.1089 7.32857 14.1751 7.32912C14.2412 7.32967 14.3065 7.34332 14.3673 7.36929C14.4281 7.39526 14.4831 7.43303 14.5293 7.48041C14.5754 7.5278 14.6116 7.58385 14.6359 7.64534C14.6602 7.70682 14.6721 7.77252 14.6708 7.83862C14.6695 7.90472 14.6552 7.96991 14.6286 8.03043C14.602 8.09095 14.5636 8.14558 14.5157 8.19118L8.34905 14.1912C8.25571 14.282 8.13062 14.3328 8.00039 14.3328C7.87016 14.3328 7.74506 14.282 7.65172 14.1912L1.48505 8.19117C1.43718 8.14558 1.39882 8.09095 1.3722 8.03043C1.34558 7.96991 1.33122 7.90472 1.32997 7.83862C1.32871 7.77252 1.34057 7.70682 1.36487 7.64534C1.38917 7.58385 1.42542 7.5278 1.47152 7.48041C1.51763 7.43303 1.57267 7.39526 1.63347 7.36929C1.69427 7.34332 1.75961 7.32967 1.82572 7.32912C1.89183 7.32857 1.95739 7.34114 2.01862 7.36609C2.07984 7.39105 2.1355 7.4279 2.18239 7.47451L8.00039 13.1358Z" fill="white"/>
</svg>

